<?xml version="1.0" encoding="utf-8"?>
<!-- Generator: Adobe Illustrator 16.0.3, SVG Export Plug-In . SVG Version: 6.00 Build 0)  -->
<!DOCTYPE svg PUBLIC "-//W3C//DTD SVG 1.1//EN" "http://www.w3.org/Graphics/SVG/1.1/DTD/svg11.dtd" [
	<!ENTITY ns_extend "http://ns.adobe.com/Extensibility/1.0/">
	<!ENTITY ns_ai "http://ns.adobe.com/AdobeIllustrator/10.0/">
	<!ENTITY ns_graphs "http://ns.adobe.com/Graphs/1.0/">
	<!ENTITY ns_vars "http://ns.adobe.com/Variables/1.0/">
	<!ENTITY ns_imrep "http://ns.adobe.com/ImageReplacement/1.0/">
	<!ENTITY ns_sfw "http://ns.adobe.com/SaveForWeb/1.0/">
	<!ENTITY ns_custom "http://ns.adobe.com/GenericCustomNamespace/1.0/">
	<!ENTITY ns_adobe_xpath "http://ns.adobe.com/XPath/1.0/">
]>
<svg version="1.1" id="Capa_1" xmlns:x="&ns_extend;" xmlns:i="&ns_ai;" xmlns:graph="&ns_graphs;"
	 xmlns="http://www.w3.org/2000/svg" xmlns:xlink="http://www.w3.org/1999/xlink" x="0px" y="0px" width="1901px"
	 height="1097.318px" viewBox="0 0 1901 1097.318" enable-background="new 0 0 1901 1097.318" xml:space="preserve">
<metadata>
	<sfw  xmlns="&ns_sfw;">
		<slices></slices>
		<sliceSourceBounds  height="1107.119" width="1928.206" y="-537.036" x="-844.79" bottomLeftOrigin="true"></sliceSourceBounds>
	</sfw>
</metadata>
<path fill="#FFFFFF" d="M-10.79-10.924v1107.119h1928.206V-10.924H-10.79z M213.246,1047.642V90.363h1476.147v957.279H213.246z"/>
<g id="shadow_2_" enable-background="new    ">
</g>
<path fill="#D2D3D5" d="M1669.832-2.393H235.167c-30.744,0-55.668,24.925-55.668,55.669v958.084
	c0,30.745,24.924,55.668,55.668,55.668h1434.665c30.746,0,55.668-24.923,55.668-55.668V53.276
	C1725.5,22.532,1700.578-2.393,1669.832-2.393z M1686.523,985.005L219.6,976.007l-9-940.865l1468.425,10.5L1686.523,985.005z"/>
<path fill="#242424" d="M1670.824,1.596H234.155c-27.939,0-50.668,22.729-50.668,50.669v958.044
	c0,27.938,22.729,50.669,50.668,50.669h1436.669c27.938,0,50.668-22.729,50.668-50.668V52.265
	C1721.492,24.325,1698.762,1.596,1670.824,1.596z M1693.5,981.96l-1488-4V66.362l1484-20.72L1693.5,981.96z"/>
<path fill="#181818" d="M1717.98,889.642l0.528-837.314c0-26.284-21.385-47.67-47.668-47.67H234.155
	c-26.285,0-47.668,21.386-47.668,47.67v935.317c0,11.047,8.953,20.002,20,20.002h1492.024c11.045,0,20-8.955,20-20.002l-0.53-93.003
	V889.642L1717.98,889.642z M1672.504,960.623H232.505v-846h1439.999V960.623z"/>
<g id="PUT_YOUR_DESIGN_HERE_xA0_Image_1_">
	<g id="bar">
		<g>
			<path fill="#D2D2D2" d="M1662.504,61.394h-1420c-5.523,0-10,4.477-10,10v44h1440v-44
				C1672.504,65.871,1668.027,61.394,1662.504,61.394z"/>
		</g>
	</g>
	<g id="shape_bar">
		<g>
			<path fill="#FFFFFF" d="M1645.504,85.394H1255.42c-6.074,0-11,4.924-11,11c0,6.074,4.926,11,11,11h390.084
				c6.074,0,11-4.926,11-11C1656.504,90.318,1651.578,85.394,1645.504,85.394z"/>
		</g>
	</g>
	<g id="Shape">
		<g>
			<path fill="#D2D2D2" d="M1259.496,90.363c-2.758,0-4.992,2.234-4.992,4.992c0,2.756,2.234,4.992,4.992,4.992
				c2.756,0,4.992-2.236,4.992-4.992C1264.488,92.597,1262.252,90.363,1259.496,90.363z M1259.486,98.66
				c-1.814,0-3.281-1.469-3.281-3.279c0-1.813,1.469-3.281,3.281-3.281c1.811,0,3.278,1.471,3.278,3.281
				C1262.768,97.191,1261.299,98.66,1259.486,98.66z"/>
		</g>
	</g>
	<g id="Shape_1_">
		<g>
			<path fill="#D2D2D2" d="M1266.635,100.824l-3.172-3.17c-0.391-0.391-1.021-0.391-1.414,0l-0.238,0.238
				c-0.391,0.391-0.391,1.021,0,1.414l3.173,3.172c0.391,0.389,1.022,0.389,1.413,0l0.238-0.24
				C1267.023,101.849,1267.023,101.214,1266.635,100.824z"/>
		</g>
	</g>
	<g id="shape_bar_1_">
		<g>
			<path fill="#FFFFFF" d="M1221.492,85.351H301.493c-2.209,0-4,1.791-4,4v14.053c0,2.209,1.791,4,4,4h919.999c2.209,0,4-1.791,4-4
				V89.351C1225.492,87.142,1223.701,85.351,1221.492,85.351z"/>
		</g>
	</g>
	<g id="plus_icon">
		<g>
			<polygon fill="#D2D2D2" points="316.504,95.394 312.504,95.394 312.504,91.394 310.504,91.394 310.504,95.394 306.504,95.394 
				306.504,97.394 310.504,97.394 310.504,101.394 312.504,101.394 312.504,97.394 316.504,97.394 			"/>
		</g>
	</g>
	<g id="shape">
		<g>
			<path fill="#E6E6E6" d="M285.493,85.394h-41c-2.209,0-4,1.791-4,4v14.01c0,2.209,1.791,4,4,4h41c2.209,0,4-1.791,4-4v-14.01
				C289.494,87.185,287.703,85.394,285.493,85.394z"/>
		</g>
	</g>
	<g id="arrow_right_xA0_Clipping_Path">
		<polygon fill="none" points="272.529,92.394 272.529,101.363 281.061,96.863 		"/>
	</g>
	<g id="arrow_back">
		<g>
			<polygon fill="#969696" points="248.973,96.863 257.504,101.363 257.504,92.394 			"/>
		</g>
	</g>
	<g id="arrows">
		<g>
			<path fill="#969696" d="M1657.033,78.317c0.684-0.684,0.684-1.793,0-2.476c-0.687-0.686-1.791-0.686-2.478,0l-1.766,1.765
				l-2.279-2.276h-0.01v7.044h7.043V82.36l-2.279-2.275L1657.033,78.317z M1657.475,68.358v0.011l2.277,2.279l-1.766,1.766
				c-0.687,0.686-0.687,1.794,0,2.477c0.684,0.684,1.791,0.684,2.475,0l1.768-1.765l2.277,2.275h0.012v-7.043H1657.475
				L1657.475,68.358z"/>
		</g>
	</g>
	<g id="green">
		<g>
			<circle fill="#36D488" cx="286.504" cy="72.362" r="6"/>
		</g>
	</g>
	<g id="yellow">
		<g>
			<circle fill="#DFBC43" cx="266.504" cy="72.362" r="6"/>
		</g>
	</g>
	<g id="red">
		<g>
			<circle fill="#E76D6B" cx="246.504" cy="72.362" r="6"/>
		</g>
	</g>
</g>
<g id="glare_2_" enable-background="new    ">
</g>
<path opacity="0.1" fill="#FFFFFF" enable-background="new    " d="M1670.832,4.617h-533.27l438.799,1003.054h122.141
	c11.045,0,20-8.953,20-20V52.286C1718.5,26.001,1697.115,4.617,1670.832,4.617z"/>
<g id="base_1_">
	<g id="base_shape">
		<g>
			<path fill="#B3B3B6" d="M6.578,1065.646c12.887,8.868,45.084,21.989,81.648,21.989h1727.71c36.563,0,68.764-13.121,81.647-21.989
				H6.578z"/>
		</g>
	</g>
	<g id="Shape_6_">
		<g>
			<path fill="#9A9A9F" d="M665.736,1083.667c-0.903-1.41-6.334-2.15-11.666-2.008c-5.332,0.142-8.982,1.522-7.644,2.526
				c0.896,0.666,4.434,1.857,9.766,1.713C661.522,1085.759,666.117,1084.261,665.736,1083.667z"/>
		</g>
	</g>
	<g id="Shape_7_">
		<g>
			<path fill="#9A9A9F" d="M1246.813,1081.66c-5.332-0.143-10.765,0.6-11.666,2.01c-0.384,0.594,4.213,2.092,9.545,2.232
				c5.33,0.146,8.866-1.047,9.762-1.713C1255.796,1083.186,1252.146,1081.804,1246.813,1081.66z"/>
		</g>
	</g>
	<g id="front_shape_xA0_Image_1_">
		<g>
			<defs>
				<path id="SVGID_1_" d="M1901,1061.646c0,2.209-1.79,4-4,4H4c-2.209,0-4-1.791-4-4v-34h1901V1061.646z"/>
			</defs>
			<clipPath id="SVGID_2_">
				<use xlink:href="#SVGID_1_"  overflow="visible"/>
			</clipPath>
			<path clip-path="url(#SVGID_2_)" fill="#D2D3D5" enable-background="new    " d="M1901,1061.646c0,2.209-1.79,4-4,4H4
				c-2.209,0-4-1.791-4-4v-34h1901V1061.646z"/>
			<path clip-path="url(#SVGID_2_)" fill="#EAEDF1" enable-background="new    " d="M1901,1061.646c0,2.209-0.072,4-0.161,4h-76.188
				c-0.089,0-0.161-1.791-0.161-4v-34H1901V1061.646z"/>
			<path clip-path="url(#SVGID_2_)" fill="#C4C4C6" enable-background="new    " d="M90.49,1061.646c0,2.209-0.085,4-0.19,4H0.19
				c-0.105,0-0.19-1.791-0.19-4v-34h90.49V1061.646z"/>
		</g>
	</g>
	<g>
		<path fill="#C4C4C6" d="M952.582,1047.646h112.646c11.045,0,20-8.954,20-20H952.582V1047.646z"/>
		<path fill="#B3B3B6" enable-background="new    " d="M953.313,1047.646H840.667c-11.046,0-20-8.954-20-20h132.646V1047.646z"/>
	</g>
</g>
<g>
	<g enable-background="new    ">
		<g opacity="0.2">
			<circle fill="#FFFFFF" cx="952.503" cy="36.143" r="8.167"/>
		</g>
		<g>
			<circle cx="952.503" cy="35.143" r="8.167"/>
		</g>
	</g>
	<circle fill="#30A7C4" enable-background="new    " cx="952.503" cy="35.143" r="4.966"/>
	<circle fill="#B1DEE9" enable-background="new    " cx="952.504" cy="33.347" r="0.813"/>
</g>
<polygon fill="#181818" points="1553.209,1027.701 336.5,1027.701 340.438,1006.644 1547.898,1006.644 "/>
</svg>
