<?xml version="1.0" encoding="utf-8"?>
<!-- Generator: Adobe Illustrator 16.0.3, SVG Export Plug-In . SVG Version: 6.00 Build 0)  -->
<!DOCTYPE svg PUBLIC "-//W3C//DTD SVG 1.1//EN" "http://www.w3.org/Graphics/SVG/1.1/DTD/svg11.dtd" [
	<!ENTITY ns_extend "http://ns.adobe.com/Extensibility/1.0/">
	<!ENTITY ns_ai "http://ns.adobe.com/AdobeIllustrator/10.0/">
	<!ENTITY ns_graphs "http://ns.adobe.com/Graphs/1.0/">
	<!ENTITY ns_vars "http://ns.adobe.com/Variables/1.0/">
	<!ENTITY ns_imrep "http://ns.adobe.com/ImageReplacement/1.0/">
	<!ENTITY ns_sfw "http://ns.adobe.com/SaveForWeb/1.0/">
	<!ENTITY ns_custom "http://ns.adobe.com/GenericCustomNamespace/1.0/">
	<!ENTITY ns_adobe_xpath "http://ns.adobe.com/XPath/1.0/">
]>
<svg version="1.1" id="Capa_1" xmlns:x="&ns_extend;" xmlns:i="&ns_ai;" xmlns:graph="&ns_graphs;"
	 xmlns="http://www.w3.org/2000/svg" xmlns:xlink="http://www.w3.org/1999/xlink" x="0px" y="0px" width="2100.025px"
	 height="1689.345px" viewBox="949.974 670.833 2100.025 1689.345" enable-background="new 949.974 670.833 2100.025 1689.345"
	 xml:space="preserve">
<metadata>
	<sfw  xmlns="&ns_sfw;">
		<slices></slices>
		<sliceSourceBounds  height="1700.254" width="2111.382" x="-941.382" y="-856.089" bottomLeftOrigin="true"></sliceSourceBounds>
	</sfw>
</metadata>
<path display="none" fill="#FFFFFF" stroke="#000000" stroke-miterlimit="10" d="M942.618,666.835v1699.254H3053V666.835H942.618z
	 M2957.941,1857.48h-1920V832.506h1920V1857.48z"/>
<g id="iMac_Flat_1_">
	<g id="imac_elements_1_">
		<g id="shadow_2_" enable-background="new    ">
		</g>
		<g id="body_2_">
			<g id="Shape">
				<g>
					<path fill="#E0E0E0" d="M1999.676,2353.415c-77.151,0-269.267,0-361.141-2.784v1.989c0,0.001,0,0.006,0,0.004v3.177
						c0,5.857,266.828,4.432,358.965,4.377c92.138,0.055,358.965,1.48,358.965-4.377v-3.177c0,0.002,0-0.003,0-0.004v-1.989
						C2266.223,2354.607,2076.826,2353.415,1999.676,2353.415z"/>
				</g>
			</g>
			<g id="Shape_xA0_Image_5_">
				<path fill="#D2D3D5" d="M2354.934,2349.587c0-4.374-75.17-11.534-90.681-18.296c-15.513-6.762-31.422-188.52-31.422-228.291
					h-231.912h-9.901h-231.912c0,39.771-15.908,221.529-31.422,228.291c-15.512,6.762-90.681,13.922-90.681,18.296
					c91.873,2.784,283.988,2.784,361.142,2.784C2075.294,2352.371,2264.689,2353.564,2354.934,2349.587z"/>
			</g>
			<path fill="#BEBFC1" d="M2232.831,2103h-231.912h-9.901h-231.912c0,39.771-15.908,221.529-31.422,228.291
				c-15.512,6.762-90.681,13.922-90.681,18.296c91.873,2.784,361.142,2.784,361.142,2.784L2232.831,2103z"/>
			<g id="Shape_2_">
				<g>
					<path fill="#D2D3D5" d="M950,1942.993v134.69c0,33.866,27.455,61.321,61.321,61.321h1977.356
						c33.867,0,61.321-27.455,61.321-61.321v-134.69H950z"/>
				</g>
			</g>
			<g id="body_xA0_Image_1_">
			</g>
			<path fill="#181818" d="M2988.65,670.833H1011.295c-33.866,0-61.321,27.455-61.321,61.322v1210.716h2100.001V732.155
				C3049.975,698.288,3022.52,670.833,2988.65,670.833z M2957.775,1857.48H1037.942V831.49h1919.833V1857.48z"/>
		</g>
		<g id="cam_1_">
			<g id="Shape_xA0_Image_3_">
				<g>
					<circle fill="#5F5D5E" cx="2000.422" cy="722.001" r="14.25"/>
					<circle fill="#0A0A0A" cx="2000.422" cy="721" r="14.25"/>
					<circle fill="#30A7C4" cx="2000.422" cy="721" r="6.25"/>
					<ellipse fill="#B9E1EB" cx="2000.422" cy="717.5" rx="1.287" ry="1.716"/>
				</g>
			</g>
			<g id="Shape_xA0_Image_1_">
			</g>
		</g>
	</g>
	<g id="Mask_Screen">
	</g>
	<path opacity="0.1" fill="#FFFFFF" enable-background="new    " d="M2987.376,672.82h-791.942l584.988,1266.992l266.989-0.009
		V732.85C3047.411,699.695,3020.532,672.82,2987.376,672.82z"/>
	<g id="top_bg">
		<g>
			<rect x="1037.942" y="777.505" fill="#181818" width="1919.999" height="54"/>
		</g>
	</g>
	<g id="bar">
		<g>
			<path fill="#D2D2D2" d="M2947.941,778.506h-1900c-5.522,0-10,4.478-10,10v44h1920v-44
				C2957.941,782.982,2953.466,778.506,2947.941,778.506z"/>
		</g>
	</g>
	<g id="shape_bar">
		<g>
			<path fill="#FFFFFF" d="M2937.941,801.505h-248.084c-6.073,0-11,4.925-11,11s4.927,11,11,11h248.084c6.075,0,11-4.925,11-11
				S2944.018,801.505,2937.941,801.505z"/>
		</g>
	</g>
	<g id="Shape_3_">
		<g>
			<path fill="#D2D2D2" d="M2688.936,806.474c-2.758,0-4.992,2.235-4.992,4.992s2.234,4.992,4.992,4.992
				c2.756,0,4.991-2.235,4.991-4.992S2691.691,806.474,2688.936,806.474z M2688.925,814.771c-1.812,0-3.28-1.47-3.28-3.281
				c0-1.813,1.47-3.281,3.28-3.281c1.813,0,3.281,1.47,3.281,3.281C2692.206,813.303,2690.737,814.771,2688.925,814.771z"/>
		</g>
	</g>
	<g id="Shape_1_">
		<g>
			<path fill="#D2D2D2" d="M2696.073,816.936l-3.173-3.171c-0.391-0.391-1.022-0.391-1.414,0l-0.237,0.238
				c-0.392,0.391-0.392,1.024,0,1.414l3.171,3.172c0.391,0.39,1.023,0.39,1.415,0l0.237-0.239
				C2696.463,817.96,2696.463,817.326,2696.073,816.936z"/>
		</g>
	</g>
	<g id="shape_bar_1_">
		<g>
			<path fill="#FFFFFF" d="M2657.932,801.463h-1551c-2.209,0-4,1.791-4,4v14.053c0,2.209,1.791,4,4,4h1551c2.209,0,4-1.791,4-4
				v-14.053C2661.932,803.254,2660.141,801.463,2657.932,801.463z"/>
		</g>
	</g>
	<g id="plus_icon">
		<g>
			<polygon fill="#D2D2D2" points="1121.942,811.505 1117.942,811.505 1117.942,807.505 1115.942,807.505 1115.942,811.505 
				1111.942,811.505 1111.942,813.505 1115.942,813.505 1115.942,817.505 1117.942,817.505 1117.942,813.505 1121.942,813.505 			
				"/>
		</g>
	</g>
	<g id="shape">
		<g>
			<path fill="#E6E6E6" d="M1090.932,801.505h-41c-2.209,0-4,1.791-4,4v14.011c0,2.209,1.791,4,4,4h41c2.209,0,4-1.791,4-4v-14.011
				C1094.932,803.296,1093.141,801.505,1090.932,801.505z"/>
		</g>
	</g>
	<polygon fill="#969696" points="1077.968,808.505 1077.968,817.474 1086.499,812.974 	"/>
	<g id="arrow_back">
		<g>
			<polygon fill="#969696" points="1054.411,812.974 1062.942,817.474 1062.942,808.505 			"/>
		</g>
	</g>
	<g id="arrows">
		<g>
			<path fill="#969696" d="M2941.472,794.429c0.686-0.684,0.685-1.793,0-2.476c-0.684-0.685-1.791-0.685-2.475,0l-1.767,1.765
				l-2.277-2.276h-0.012v7.043h7.043v-0.012l-2.279-2.277L2941.472,794.429z M2941.912,784.47v0.011l2.278,2.279l-1.767,1.767
				c-0.684,0.684-0.684,1.792,0,2.475c0.685,0.684,1.791,0.684,2.476,0l1.766-1.765l2.278,2.276h0.011v-7.043H2941.912
				L2941.912,784.47z"/>
		</g>
	</g>
	<g id="green">
		<g>
			<circle fill="#36D488" cx="1091.942" cy="788.474" r="6"/>
		</g>
	</g>
	<g id="yellow">
		<g>
			<circle fill="#DFBC43" cx="1071.942" cy="788.474" r="6"/>
		</g>
	</g>
	<g id="red">
		<g>
			<circle fill="#E76D6B" cx="1051.942" cy="788.474" r="6"/>
		</g>
	</g>
</g>
</svg>
